<?xml version="1.0" encoding="utf-8"?>
<!-- Generator: Adobe Illustrator 16.0.0, SVG Export Plug-In . SVG Version: 6.00 Build 0)  -->
<!DOCTYPE svg PUBLIC "-//W3C//DTD SVG 1.1//EN" "http://www.w3.org/Graphics/SVG/1.1/DTD/svg11.dtd">
<svg version="1.1" id="Capa_1" xmlns="http://www.w3.org/2000/svg" xmlns:xlink="http://www.w3.org/1999/xlink" x="0px" y="0px"
	 width="360px" height="360px" viewBox="0 0 360 360" enable-background="new 0 0 360 360" xml:space="preserve">
<path fill="#FFFFFF" d="M288.084,257.334l-57.318-28.656c-5.406-2.705-8.766-8.142-8.766-14.189v-20.286
	c1.374-1.681,2.82-3.595,4.314-5.706c7.434-10.5,13.392-22.188,17.724-34.794C252.504,149.82,258,141.45,258,132v-24
	c0-5.778-2.16-11.376-6-15.75V60.336c0.336-3.3,1.656-22.944-12.552-39.15C227.124,7.128,207.126,0,180,0
	s-47.124,7.128-59.448,21.18C106.344,37.386,107.664,57.036,108,60.336V92.25c-3.84,4.374-6,9.972-6,15.75v24
	c0,7.302,3.318,14.112,8.982,18.654c5.496,21.762,16.998,38.161,21.018,43.422v19.854c0,5.809-3.168,11.137-8.262,13.92
	l-53.526,29.196C52.806,266.544,42,284.748,42,304.572V324c0,28.477,90.27,36,138,36c47.73,0,138-7.523,138-36v-18.258
	C318,285.114,306.534,266.562,288.084,257.334z M306,324c0,8.143-44.473,24-126,24c-81.528,0-126-15.857-126-24v-19.428
	c0-15.426,8.412-29.604,21.954-36.984l53.526-29.195c8.958-4.891,14.52-14.269,14.52-24.463v-24.113l-1.398-1.668
	c-0.144-0.174-14.85-17.964-20.46-42.391l-0.546-2.376l-2.046-1.32c-3.474-2.244-5.55-6.006-5.55-10.062v-24
	c0-3.366,1.428-6.504,4.02-8.85l1.98-1.782V60l-0.054-0.786c-0.018-0.162-2.058-16.794,9.63-30.126
	C139.518,17.748,156.486,12,180,12c23.43,0,40.361,5.706,50.316,16.968c11.682,13.206,9.75,30.102,9.738,30.246L240,97.368
	l1.98,1.788c2.592,2.34,4.02,5.478,4.02,8.844v24c0,5.238-3.432,9.822-8.532,11.394l-2.987,0.918l-0.961,2.97
	c-4.014,12.486-9.731,24.018-17.004,34.278c-1.781,2.525-3.516,4.764-5.021,6.474L210,189.738v24.75
	c0,10.619,5.898,20.166,15.396,24.918l57.317,28.656C297.078,275.244,306,289.68,306,305.742V324z"/>
</svg>
