<?xml version="1.0" encoding="utf-8"?>
<!-- Generator: Adobe Illustrator 16.0.0, SVG Export Plug-In . SVG Version: 6.00 Build 0)  -->
<!DOCTYPE svg PUBLIC "-//W3C//DTD SVG 1.1//EN" "http://www.w3.org/Graphics/SVG/1.1/DTD/svg11.dtd">
<svg version="1.1" id="Capa_1" xmlns="http://www.w3.org/2000/svg" xmlns:xlink="http://www.w3.org/1999/xlink" x="0px" y="0px"
	 width="360px" height="360px" viewBox="0 0 360 360" enable-background="new 0 0 360 360" xml:space="preserve">
<path fill="#FFFFFF" d="M360,180C360,80.751,279.248,0,180,0C80.751,0,0,80.751,0,180c0,52.422,22.542,99.674,58.425,132.598
	l-0.17,0.15l5.839,4.922c0.379,0.321,0.792,0.583,1.171,0.897c3.103,2.572,6.316,5.014,9.589,7.376
	c1.06,0.767,2.121,1.532,3.201,2.278c3.495,2.409,7.082,4.693,10.748,6.86c0.798,0.471,1.604,0.929,2.409,1.387
	c4.012,2.285,8.11,4.438,12.306,6.415c0.308,0.144,0.622,0.274,0.929,0.419c13.673,6.355,28.27,11.022,43.534,13.777
	c0.399,0.072,0.799,0.145,1.205,0.217c4.739,0.818,9.53,1.473,14.38,1.911c0.589,0.052,1.178,0.085,1.774,0.138
	C170.169,359.744,175.052,360,180,360c4.902,0,9.74-0.256,14.544-0.642c0.608-0.052,1.218-0.085,1.826-0.138
	c4.812-0.438,9.563-1.073,14.256-1.878c0.406-0.072,0.818-0.144,1.224-0.223c15.035-2.696,29.422-7.259,42.919-13.451
	c0.497-0.229,1.001-0.444,1.499-0.681c4.039-1.898,7.985-3.947,11.854-6.127c0.963-0.543,1.918-1.093,2.874-1.655
	c3.521-2.075,6.983-4.241,10.349-6.546c1.211-0.824,2.395-1.695,3.593-2.559c2.874-2.068,5.694-4.203,8.438-6.435
	c0.608-0.491,1.263-0.917,1.858-1.421l5.989-5l-0.177-0.15C337.241,280.158,360,232.691,360,180z M13.091,180
	C13.091,87.964,87.964,13.091,180,13.091c92.035,0,166.909,74.874,166.909,166.909c0,49.595-21.764,94.183-56.219,124.775
	c-1.925-1.328-3.862-2.52-5.845-3.514l-55.421-27.707c-4.975-2.488-8.063-7.488-8.063-13.045v-19.355
	c1.282-1.584,2.637-3.377,4.038-5.348c7.174-10.133,12.927-21.404,17.122-33.532c8.294-3.94,13.648-12.201,13.648-21.528v-23.204
	c0-5.675-2.082-11.18-5.807-15.506v-30.547c0.341-3.397,1.545-22.569-12.324-38.383C225.975,59.334,206.45,52.364,180,52.364
	s-45.975,6.971-58.039,20.736c-13.87,15.814-12.666,34.985-12.325,38.383v30.547c-3.718,4.327-5.806,9.832-5.806,15.506v23.204
	c0,7.206,3.233,13.928,8.771,18.464c5.302,20.769,16.213,36.491,20.245,41.819v18.942c0,5.341-2.913,10.25-7.606,12.815
	l-51.755,28.23c-1.649,0.897-3.286,1.945-4.922,3.116C34.534,273.548,13.091,229.234,13.091,180z M277.914,315.046
	c-2.291,1.663-4.621,3.272-6.984,4.812c-1.087,0.706-2.167,1.413-3.273,2.101c-3.089,1.911-6.23,3.73-9.438,5.433
	c-0.707,0.373-1.421,0.727-2.135,1.093c-7.369,3.776-14.995,7.023-22.83,9.661c-0.275,0.092-0.55,0.189-0.832,0.281
	c-4.104,1.361-8.26,2.572-12.462,3.613c-0.013,0-0.026,0.007-0.039,0.007c-4.241,1.048-8.536,1.918-12.855,2.632
	c-0.118,0.02-0.235,0.045-0.354,0.064c-4.064,0.662-8.162,1.139-12.272,1.499c-0.727,0.065-1.453,0.111-2.187,0.164
	c-4.064,0.308-8.149,0.504-12.253,0.504c-4.15,0-8.287-0.203-12.404-0.511c-0.713-0.053-1.427-0.098-2.134-0.164
	c-4.15-0.366-8.28-0.857-12.371-1.524c-0.184-0.032-0.367-0.065-0.55-0.099c-8.653-1.446-17.169-3.574-25.462-6.355
	c-0.255-0.085-0.517-0.177-0.772-0.262c-4.117-1.4-8.188-2.952-12.188-4.667c-0.026-0.013-0.059-0.026-0.085-0.039
	c-3.784-1.63-7.495-3.437-11.16-5.341c-0.478-0.249-0.962-0.484-1.434-0.74c-3.345-1.787-6.617-3.718-9.844-5.733
	c-0.956-0.603-1.905-1.211-2.847-1.826c-2.972-1.944-5.904-3.967-8.758-6.106c-0.295-0.223-0.576-0.459-0.871-0.682
	c0.209-0.117,0.419-0.235,0.628-0.354l51.755-28.23c8.902-4.856,14.433-14.171,14.433-24.31l-0.007-23.577l-1.505-1.819
	c-0.144-0.163-14.295-17.378-19.643-40.687l-0.596-2.592l-2.232-1.447c-3.148-2.035-5.034-5.438-5.034-9.111v-23.203
	c0-3.043,1.29-5.878,3.646-8.005l2.16-1.951v-36.458l-0.059-0.857c-0.02-0.157-1.951-15.899,9.137-28.539
	C141.271,70.933,157.49,65.455,180,65.455c22.425,0,38.592,5.433,48.083,16.141c11.075,12.508,9.262,28.544,9.249,28.676
	l-0.059,37.315l2.159,1.951c2.351,2.121,3.646,4.961,3.646,8.005v23.204c0,4.667-3.174,8.902-7.73,10.309l-3.252,1.002l-1.048,3.24
	c-3.862,11.998-9.36,23.079-16.337,32.937c-1.715,2.422-3.385,4.569-4.818,6.212l-1.623,1.852v24.213
	c0,10.551,5.865,20.041,15.304,24.754l55.421,27.707c0.353,0.177,0.699,0.36,1.047,0.543
	C279.34,314.045,278.62,314.535,277.914,315.046z"/>
</svg>
