<?xml version="1.0" encoding="utf-8"?>
<!-- Generator: Adobe Illustrator 16.0.0, SVG Export Plug-In . SVG Version: 6.00 Build 0)  -->
<!DOCTYPE svg PUBLIC "-//W3C//DTD SVG 1.1//EN" "http://www.w3.org/Graphics/SVG/1.1/DTD/svg11.dtd">
<svg version="1.1" id="Layer_1" xmlns="http://www.w3.org/2000/svg" xmlns:xlink="http://www.w3.org/1999/xlink" x="0px" y="0px"
	 width="360px" height="360px" viewBox="0 0 360 360" enable-background="new 0 0 360 360" xml:space="preserve">
<g>
	<g>
		<path fill="#FFFFFF" d="M60.487,0C35.342,0,14.875,20.467,14.875,45.612c0,25.145,20.467,45.612,45.612,45.612
			S106.1,70.757,106.1,45.612C106.1,20.467,85.632,0,60.487,0z M60.487,76.824c-17.178,0-31.139-13.961-31.139-31.139
			c0-17.178,13.961-31.139,31.139-31.139s31.139,13.961,31.139,31.139C91.626,62.863,77.665,76.824,60.487,76.824z"/>
		<path fill="#FFFFFF" d="M60.487,134.424c-25.145,0-45.612,20.467-45.612,45.612s20.467,45.612,45.612,45.612
			s45.612-20.467,45.612-45.612S85.632,134.424,60.487,134.424z M60.487,211.176c-17.178,0-31.139-13.961-31.139-31.139
			c0-17.178,13.961-31.139,31.139-31.139s31.139,13.961,31.139,31.139C91.626,197.215,77.665,211.176,60.487,211.176z"/>
		<path fill="#FFFFFF" d="M60.487,268.775c-25.145,0-45.612,20.467-45.612,45.612S35.342,360,60.487,360
			s45.612-20.467,45.612-45.612S85.632,268.775,60.487,268.775z M60.487,345.6c-17.178,0-31.139-13.961-31.139-31.139
			s13.961-31.139,31.139-31.139s31.139,13.961,31.139,31.139C91.626,331.565,77.665,345.6,60.487,345.6z"/>
		<path fill="#FFFFFF" d="M345.125,43.2c0-4.021-3.217-7.237-7.236-7.237H155.147c-4.021,0-7.237,3.216-7.237,7.237
			c0,4.02,3.216,7.236,7.237,7.236h182.741C341.908,50.437,345.125,47.22,345.125,43.2z"/>
		<path fill="#FFFFFF" d="M152.662,172.8c-4.021,0-7.237,3.216-7.237,7.237c0,4.02,3.216,7.237,7.237,7.237h182.741
			c4.021,0,7.236-3.217,7.236-7.237c0-4.021-3.216-7.237-7.236-7.237H152.662z"/>
		<path fill="#FFFFFF" d="M342.64,314.388c0-4.021-3.216-7.236-7.236-7.236H152.662c-4.021,0-7.237,3.216-7.237,7.236
			s3.216,7.237,7.237,7.237h182.741C339.424,321.625,342.64,318.408,342.64,314.388z"/>
	</g>
</g>
</svg>
