<?xml version="1.0" encoding="utf-8"?>
<!-- Generator: Adobe Illustrator 16.0.0, SVG Export Plug-In . SVG Version: 6.00 Build 0)  -->
<!DOCTYPE svg PUBLIC "-//W3C//DTD SVG 1.1//EN" "http://www.w3.org/Graphics/SVG/1.1/DTD/svg11.dtd">
<svg version="1.1" id="Capa_1" xmlns="http://www.w3.org/2000/svg" xmlns:xlink="http://www.w3.org/1999/xlink" x="0px" y="0px"
	 width="360px" height="360px" viewBox="0 0 360 360" enable-background="new 0 0 360 360" xml:space="preserve">
<path fill="#FFFFFF" d="M243.643,255.859c-3.197,3.197-5.949,6.713-8.329,10.429l-105.446-64.006
	c2.789-6.981,4.369-14.572,4.369-22.536s-1.581-15.554-4.363-22.535l105.47-63.518c10.832,17.013,29.822,28.351,51.448,28.351
	c33.647,0,61.021-27.375,61.021-61.022C347.813,27.375,320.439,0,286.792,0S225.77,27.375,225.77,61.022
	c0,7.665,1.482,14.975,4.07,21.736l-105.611,63.603c-10.911-16.622-29.693-27.637-51.021-27.637
	c-33.647,0-61.022,27.375-61.022,61.022c0,33.648,27.375,61.023,61.022,61.023c21.328,0,40.104-11.016,51.015-27.638l105.593,64.092
	c-2.624,6.871-4.052,14.212-4.052,21.784c0,16.3,6.346,31.629,17.873,43.149C255.53,354.051,271.158,360,286.785,360
	c15.629,0,31.256-5.949,43.149-17.843c11.527-11.527,17.873-26.85,17.873-43.149c0-16.299-6.346-31.627-17.873-43.148
	C306.142,232.061,267.436,232.061,243.643,255.859z M286.792,12.205c26.917,0,48.817,21.901,48.817,48.817
	c0,26.917-21.9,48.818-48.817,48.818s-48.817-21.901-48.817-48.818C237.975,34.105,259.869,12.205,286.792,12.205z M73.214,228.564
	c-26.917,0-48.818-21.9-48.818-48.818c0-26.917,21.901-48.817,48.818-48.817s48.818,21.901,48.818,48.817
	C122.032,206.664,100.131,228.564,73.214,228.564z M321.306,333.529c-19.032,19.032-50.001,19.032-69.034,0
	c-9.221-9.221-14.297-21.486-14.297-34.521c0-13.033,5.076-25.299,14.297-34.52c9.52-9.52,22.017-14.273,34.521-14.273
	c12.503,0,25.001,4.754,34.52,14.273c9.221,9.221,14.298,21.486,14.298,34.52C335.609,312.043,330.532,324.309,321.306,333.529z"/>
</svg>
