<?xml version="1.0" encoding="utf-8"?>
<!-- Generator: Adobe Illustrator 16.0.0, SVG Export Plug-In . SVG Version: 6.00 Build 0)  -->
<!DOCTYPE svg PUBLIC "-//W3C//DTD SVG 1.1//EN" "http://www.w3.org/Graphics/SVG/1.1/DTD/svg11.dtd">
<svg version="1.1" id="Capa_1" xmlns="http://www.w3.org/2000/svg" xmlns:xlink="http://www.w3.org/1999/xlink" x="0px" y="0px"
	 width="360px" height="360px" viewBox="0 0 360 360" enable-background="new 0 0 360 360" xml:space="preserve">
<path fill="#FFFFFF" d="M356.443,288.389c-26.91-37.912-109.438-155.147-109.438-155.147c-1.976-2.813-5.093-4.633-8.513-4.981
	c-3.441-0.332-6.835,0.802-9.348,3.15l-21.625,20.243l-50.747-94.183c-2.058-3.801-5.998-6.198-10.322-6.256
	c-4.247-0.191-8.338,2.227-10.489,5.972L1.581,290.953c-2.116,3.687-2.104,8.221,0.012,11.9c2.139,3.674,6.07,5.941,10.313,5.941
	h335.957c0.081-0.012,0.163-0.006,0.229,0c6.584,0,11.907-5.33,11.907-11.906C360,293.559,358.226,290.9,356.443,288.389z
	 M212.519,179.601l22.906-21.458l45.545,64.566l-38.64-40.248c-0.627-0.646-1.488-1.019-2.396-1.029
	c-0.882-0.007-1.755,0.349-2.394,0.983l-27.559,27.521c-0.954,0.959-2.396,1.246-3.65,0.722c-1.256-0.519-2.07-1.744-2.058-3.099
	l0.104-25.029C207.355,182.531,210.285,181.678,212.519,179.601z M145.949,87.598l29.546,54.818l-22.187,19.569
	c-0.686,0.611-1.605,0.907-2.51,0.826c-0.919-0.082-1.768-0.541-2.326-1.262l-14.222-18.046c-0.674-0.854-1.722-1.331-2.801-1.272
	c-1.094,0.058-2.093,0.645-2.662,1.564l-21.5,34.284c-0.674,1.063-1.885,1.668-3.14,1.551c-1.255-0.115-2.35-0.929-2.813-2.098
	l-2.883-7.302L145.949,87.598z"/>
</svg>
